<svg width="500" height="500" xmlns="http://www.w3.org/2000/svg" fill="none">
<g>
  <title>Layer 1</title>
  <path stroke="null" id="svg_1" fill="#f5f5dc" d="m347.53611,349.31715l-13.13491,13.13825l26.27316,26.27279l13.13825,-13.13454l-26.2765,-26.2765zm124.60532,-98.32882l13.13825,13.13639l13.13454,-13.13639l-13.13454,-13.13639l-13.13825,13.13639zm-98.32882,-124.60346l-13.13825,-13.13677l-26.27316,26.27316l13.13491,13.13639l26.2765,-26.27279zm-249.20878,249.20878l13.13639,13.13454l26.27316,-26.27279l-13.13677,-13.13825l-26.27279,26.2765zm-98.33067,-124.60532l-13.13639,-13.13639l-13.13677,13.13639l13.13677,13.13639l13.13639,-13.13639zm124.60346,-98.33067l13.13677,-13.13639l-26.27316,-26.27316l-13.13639,13.13677l26.27279,26.27279zm222.93599,222.93599l111.46707,-111.46893l-26.2765,-26.27279l-111.46707,111.46521l26.2765,26.2765zm111.46707,-137.74171l-111.46707,-111.46707l-26.2765,26.27279l111.46707,111.46707l26.2765,-26.27279zm-334.40306,111.46521l-111.46707,-111.46521l-26.27279,26.27279l111.46707,111.46893l26.27279,-26.2765zm-111.46707,-85.19242l111.46707,-111.46707l-26.27279,-26.27279l-111.46707,111.46707l26.27279,26.27279zm228.62824,-239.12473l-74.31138,445.86827l36.65037,6.1084l74.31138,-445.86827l-36.65037,-6.1084z" class="drawing"/>
</g>
</svg>