<svg width="500" height="500" xmlns="http://www.w3.org/2000/svg" xml:space="preserve" version="1.1">

<g>
  <title>eat</title>
  <path stroke="null" id="svg_1" fill="#f5f5dc" d="m318.12585,252.47048c5.13165,-0.43136 11.72099,0 17.56661,0.44623c4.56643,0.32724 8.98411,0.6396 13.11918,0.6396c8.0619,0 19.81263,-1.02633 28.70749,-9.92119l104.12044,-104.12044c5.81587,-5.81587 5.81587,-15.21646 0,-21.03233l-104.12044,-104.12044c-5.81587,-5.81587 -15.21646,-5.81587 -21.03233,0l-104.12044,104.12044c-17.64098,17.64098 -19.24741,35.78768 -17.83434,50.37942l-139.64039,-139.61064c-1.82954,-1.82954 -11.69124,-10.96239 -25.94086,-10.96239c-6.33647,0 -15.78168,1.90392 -24.84016,10.96239c-4.73004,4.73004 -6.91657,11.69124 -6.67858,21.27032c0.95196,37.87009 43.96857,147.16681 119.99137,222.40126l-143.06149,143.06149c-5.81587,5.81587 -5.81587,15.21646 0,21.03233l44.62305,44.62305c5.81587,5.81587 15.21646,5.81587 21.03233,0l167.97602,-167.97602l167.97602,167.97602c2.9005,2.9005 6.70833,4.35818 10.51616,4.35818s7.61567,-1.45769 10.51616,-4.35818l44.62305,-44.62305c5.81587,-5.81587 5.81587,-15.21646 0,-21.03233l-163.49884,-163.51371zm-52.55107,-76.67727c-2.58814,-15.05284 -3.58472,-24.85504 7.80903,-36.26366l93.60428,-93.60428l21.40419,21.40419l-71.29275,71.29275c-2.9005,2.9005 -2.9005,7.61567 0,10.51616c1.45769,1.45769 3.3616,2.18653 5.26552,2.18653s3.80783,-0.72884 5.26552,-2.17165l71.29275,-71.29275l19.23253,19.23253l-71.29275,71.29275c-2.9005,2.9005 -2.9005,7.61567 0,10.51616c1.44281,1.44281 3.34673,2.17165 5.25065,2.17165s3.80783,-0.72884 5.26552,-2.17165l71.29275,-71.29275l21.40419,21.40419l-93.60428,93.60428c-0.13387,0.11899 -1.38331,1.20482 -7.67516,1.20482c-3.43597,0 -7.12481,-0.29749 -10.91777,-0.56523c-4.80441,-0.35698 -9.78732,-0.71397 -14.74048,-0.71397c-11.20038,0 -27.62167,1.54693 -41.03833,14.94872l-23.59072,-23.59072c11.60199,-11.60199 9.07335,-26.31272 7.06532,-38.10808zm-196.07366,274.29786l-23.59072,-23.59072l143.35897,-143.35897c0.25286,-0.25286 0.34211,-0.60985 0.5801,-0.87759c3.12361,2.54351 6.27698,5.01266 9.48983,7.40743c2.60301,1.94854 5.801,2.96 9.05848,2.96l18.56319,0l-157.45985,157.45985zm356.98437,0l-172.3342,-172.3342l-45.93199,0c-88.56187,-65.98261 -142.764,-201.96391 -141.09807,-229.09472c0.60985,-0.38673 1.24945,-0.6396 1.82954,-0.6396c1.6808,0 4.03095,1.45769 4.90854,2.2609l376.2169,376.2169l-23.59072,23.59072z" class="drawing"/>
</g>
</svg>