<svg width="500" height="500" xmlns="http://www.w3.org/2000/svg" xml:space="preserve" version="1.1">
<g>
  <title>repeat</title>
  <path stroke="#f5f5dc" id="svg_3" fill="#f5f5dc" d="m332.00368,403.1667l-235.23186,0l0,-300.4722l54.20067,54.20067c1.58173,1.58173 3.65826,2.37665 5.73479,2.37665s4.15306,-0.79492 5.73479,-2.37665c3.17157,-3.17157 3.17157,-8.29801 0,-11.46958l-68.0469,-68.0469c-3.17157,-3.17157 -8.29801,-3.17157 -11.46958,0l-68.0469,68.0469c-3.17157,3.17157 -3.17157,8.29801 0,11.46958s8.29801,3.17157 11.46958,0l54.20067,-54.20067l0,308.58365c0,4.47752 3.63393,8.11144 8.11144,8.11144l243.34331,0c4.47752,0 8.11144,-3.63393 8.11144,-8.11144s-3.63393,-8.11144 -8.11144,-8.11144z" class="drawing"/>
  <path stroke="#f5f5dc" id="svg_4" fill="#f5f5dc" d="m486.8998,343.79905c-3.17157,-3.17157 -8.29801,-3.17157 -11.46958,0l-54.20067,54.20067l0,-311.17931c0,-4.47752 -3.63393,-8.11144 -8.11144,-8.11144l-243.34331,0c-4.47752,0 -8.11144,3.63393 -8.11144,8.11144c0,4.47752 3.63393,8.11144 8.11144,8.11144l235.23186,0l0,303.07598l-54.20067,-54.20067c-3.17157,-3.17157 -8.29801,-3.17157 -11.46958,0s-3.17157,8.29801 0,11.46958l68.0469,68.0469c1.58173,1.58173 3.65826,2.37665 5.73479,2.37665s4.15306,-0.79492 5.73479,-2.37665l68.0469,-68.0469c3.17157,-3.17157 3.17157,-8.30612 0,-11.47769z" class="drawing"/>
</g>
</svg>