<svg width="500" height="500" xmlns="http://www.w3.org/2000/svg" xml:space="preserve" version="1.1">

<g>
  <title>sleep</title>
  <path stroke="null" id="svg_3" fill="#f5f5dc" d="m418.22427,167.60879l0,57.07793l-221.32866,0c-6.39302,-27.02583 -30.70337,-47.20127 -59.65425,-47.20127l-56.46655,0l0,-69.48545l-68.7748,0l0,291.69082l68.7748,0l0,-34.55811l337.45039,0l0,34.55811l68.7748,0l0,-232.08203l-68.77573,0zm-365.66836,9.87666l0,47.20127l0,28.2189l0,112.22803l0,6.33921l-12.33701,0l0,-235.25303l12.33608,0l0,41.26563l0.00093,0zm28.2189,28.2189l56.46748,0c13.20259,0 24.62485,7.77256 29.93057,18.98237l-86.39805,0l0,-18.98237zm337.44946,131.20947l-337.44946,0l0,-18.81538l337.45039,0l0,18.81538l-0.00093,0zm0,-47.03428l-337.44946,0l0,-36.97485l117.77773,0l219.67266,0l0,36.97485l-0.00093,0zm40.55684,81.59238l-12.33608,0l0,-6.33921l0,-140.44692l0,-28.85903l12.33608,0l0,175.64517z" class="drawing"/>
</g>
</svg>